<svg id="Layer_1" data-name="Layer 1" xmlns="http://www.w3.org/2000/svg" width="7.32in" height="0.14in" viewBox="0 0 526.84 10"><defs><style>.cls-1{fill:#8bd2df;}</style></defs><title>Artboard 1</title><path class="cls-1" d="M6,3.77H1.42A1.28,1.28,0,0,0,0,5,1.28,1.28,0,0,0,1.42,6.23H6A1.28,1.28,0,0,0,7.41,5,1.28,1.28,0,0,0,6,3.77Z"/><path class="cls-1" d="M20.58,10a1.2,1.2,0,0,1-.85-2L21.48,6.2H14.76L20.61.35a1.2,1.2,0,1,1,1.7,1.7L20.57,3.79h6.72L21.43,9.65A1.22,1.22,0,0,1,20.58,10Z"/><path class="cls-1" d="M40.63,3.77H36.06A1.28,1.28,0,0,0,34.64,5a1.28,1.28,0,0,0,1.42,1.23h4.57A1.28,1.28,0,0,0,42.05,5a1.28,1.28,0,0,0-1.42-1.23Z"/><path class="cls-1" d="M55.22,10a1.2,1.2,0,0,1-.85-2L56.12,6.2H49.4L55.24.35A1.21,1.21,0,0,1,57,.35a1.2,1.2,0,0,1,0,1.7L55.21,3.79h6.72L56.07,9.65A1.24,1.24,0,0,1,55.22,10Z"/><path class="cls-1" d="M75.27,3.77H70.7A1.28,1.28,0,0,0,69.28,5,1.28,1.28,0,0,0,70.7,6.23h4.57A1.28,1.28,0,0,0,76.69,5a1.28,1.28,0,0,0-1.42-1.23Z"/><path class="cls-1" d="M89.86,10A1.24,1.24,0,0,1,89,9.65,1.2,1.2,0,0,1,89,8L90.75,6.2H84L89.88.35a1.21,1.21,0,0,1,1.71,0,1.2,1.2,0,0,1,0,1.7L89.85,3.79h6.71L90.71,9.65A1.24,1.24,0,0,1,89.86,10Z"/><path class="cls-1" d="M109.91,3.77h-4.57A1.28,1.28,0,0,0,103.92,5a1.28,1.28,0,0,0,1.42,1.23h4.57A1.28,1.28,0,0,0,111.33,5a1.28,1.28,0,0,0-1.42-1.23Z"/><path class="cls-1" d="M124.49,10a1.24,1.24,0,0,1-.85-.35,1.2,1.2,0,0,1,0-1.7l1.75-1.75h-6.71L124.52.35a1.2,1.2,0,1,1,1.7,1.7l-1.73,1.74h6.71l-5.85,5.86A1.24,1.24,0,0,1,124.49,10Z"/><path class="cls-1" d="M144.54,3.77H140A1.28,1.28,0,0,0,138.56,5,1.28,1.28,0,0,0,140,6.23h4.56A1.28,1.28,0,0,0,146,5a1.28,1.28,0,0,0-1.43-1.23Z"/><path class="cls-1" d="M159.13,10a1.22,1.22,0,0,1-.85-.35,1.2,1.2,0,0,1,0-1.7L160,6.2h-6.71L159.16.35a1.2,1.2,0,0,1,1.7,1.7l-1.73,1.74h6.71L160,9.65A1.2,1.2,0,0,1,159.13,10Z"/><path class="cls-1" d="M179.18,3.77h-4.56A1.28,1.28,0,0,0,173.19,5a1.28,1.28,0,0,0,1.43,1.23h4.56A1.28,1.28,0,0,0,180.6,5a1.28,1.28,0,0,0-1.42-1.23Z"/><path class="cls-1" d="M193.77,10a1.22,1.22,0,0,1-.85-.35,1.2,1.2,0,0,1,0-1.7l1.75-1.75H188L193.8.35a1.2,1.2,0,0,1,1.7,1.7l-1.73,1.74h6.71l-5.86,5.86A1.2,1.2,0,0,1,193.77,10Z"/><path class="cls-1" d="M213.82,3.77h-4.57A1.28,1.28,0,0,0,207.83,5a1.28,1.28,0,0,0,1.42,1.23h4.57A1.28,1.28,0,0,0,215.24,5a1.28,1.28,0,0,0-1.42-1.23Z"/><path class="cls-1" d="M228.41,10a1.2,1.2,0,0,1-.85-2l1.75-1.75H222.6L228.44.35a1.2,1.2,0,0,1,1.7,1.7l-1.73,1.74h6.71l-5.86,5.86A1.2,1.2,0,0,1,228.41,10Z"/><path class="cls-1" d="M248.46,3.77h-4.57A1.28,1.28,0,0,0,242.47,5a1.28,1.28,0,0,0,1.42,1.23h4.57A1.28,1.28,0,0,0,249.88,5a1.28,1.28,0,0,0-1.42-1.23Z"/><path class="cls-1" d="M317.58,3.77H313A1.28,1.28,0,0,0,311.6,5,1.28,1.28,0,0,0,313,6.23h4.56A1.28,1.28,0,0,0,319,5a1.28,1.28,0,0,0-1.43-1.23Z"/><path class="cls-1" d="M332.17,10a1.24,1.24,0,0,1-.85-.35,1.2,1.2,0,0,1,0-1.7l1.75-1.75h-6.71L332.2.35a1.2,1.2,0,0,1,1.7,1.7l-1.73,1.74h6.71L333,9.65A1.2,1.2,0,0,1,332.17,10Z"/><path class="cls-1" d="M352.22,3.77h-4.56A1.28,1.28,0,0,0,346.23,5a1.28,1.28,0,0,0,1.43,1.23h4.56A1.28,1.28,0,0,0,353.64,5a1.28,1.28,0,0,0-1.42-1.23Z"/><path class="cls-1" d="M366.81,10a1.22,1.22,0,0,1-.85-.35A1.2,1.2,0,0,1,366,8l1.75-1.75H361L366.84.35a1.2,1.2,0,1,1,1.7,1.7l-1.73,1.74h6.71l-5.86,5.86A1.2,1.2,0,0,1,366.81,10Z"/><path class="cls-1" d="M386.86,3.77h-4.57A1.28,1.28,0,0,0,380.87,5a1.28,1.28,0,0,0,1.42,1.23h4.57A1.28,1.28,0,0,0,388.28,5a1.28,1.28,0,0,0-1.42-1.23Z"/><path class="cls-1" d="M401.45,10a1.2,1.2,0,0,1-.85-2l1.75-1.75h-6.71L401.48.35a1.2,1.2,0,1,1,1.7,1.7l-1.73,1.74h6.71L402.3,9.65A1.2,1.2,0,0,1,401.45,10Z"/><path class="cls-1" d="M421.5,3.77h-4.57A1.28,1.28,0,0,0,415.51,5a1.28,1.28,0,0,0,1.42,1.23h4.57A1.28,1.28,0,0,0,422.92,5a1.28,1.28,0,0,0-1.42-1.23Z"/><path class="cls-1" d="M436.09,10a1.2,1.2,0,0,1-.85-2L437,6.2h-6.72L436.12.35a1.2,1.2,0,1,1,1.7,1.7l-1.74,1.74h6.72l-5.86,5.86A1.2,1.2,0,0,1,436.09,10Z"/><path class="cls-1" d="M456.14,3.77h-4.57A1.28,1.28,0,0,0,450.15,5a1.28,1.28,0,0,0,1.42,1.23h4.57A1.28,1.28,0,0,0,457.56,5a1.28,1.28,0,0,0-1.42-1.23Z"/><path class="cls-1" d="M470.73,10a1.2,1.2,0,0,1-.85-2l1.75-1.75h-6.72L470.76.35a1.2,1.2,0,1,1,1.7,1.7l-1.74,1.74h6.72l-5.86,5.86A1.22,1.22,0,0,1,470.73,10Z"/><path class="cls-1" d="M490.78,3.77h-4.57A1.28,1.28,0,0,0,484.79,5a1.28,1.28,0,0,0,1.42,1.23h4.57A1.28,1.28,0,0,0,492.2,5a1.28,1.28,0,0,0-1.42-1.23Z"/><path class="cls-1" d="M505.37,10a1.2,1.2,0,0,1-.85-2l1.75-1.75h-6.72L505.4.35a1.2,1.2,0,1,1,1.7,1.7l-1.74,1.74h6.72l-5.86,5.86A1.22,1.22,0,0,1,505.37,10Z"/><path class="cls-1" d="M525.42,3.77h-4.57A1.28,1.28,0,0,0,519.43,5a1.28,1.28,0,0,0,1.42,1.23h4.57A1.28,1.28,0,0,0,526.84,5a1.28,1.28,0,0,0-1.42-1.23Z"/><path class="cls-1" d="M263.05,10a1.2,1.2,0,0,1-.85-2L264,6.2h-6.72L263.08.35a1.2,1.2,0,0,1,1.7,1.7L263,3.79h6.72L263.9,9.65A1.2,1.2,0,0,1,263.05,10Z"/><path class="cls-1" d="M283.1,3.77h-4.57A1.28,1.28,0,0,0,277.11,5a1.28,1.28,0,0,0,1.42,1.23h4.57A1.28,1.28,0,0,0,284.52,5a1.28,1.28,0,0,0-1.42-1.23Z"/><path class="cls-1" d="M297.69,10a1.2,1.2,0,0,1-.85-2l1.75-1.75h-6.72L297.72.35a1.2,1.2,0,1,1,1.7,1.7l-1.74,1.74h6.72l-5.86,5.86A1.22,1.22,0,0,1,297.69,10Z"/></svg>